<svg width="500" height="120" viewBox="0 0 500 120" fill="none" xmlns="http://www.w3.org/2000/svg">
<path d="M27.0309 82.3854C25.1825 82.3854 23.3869 82.1911 21.6454 81.8019C19.9033 81.4132 18.23 80.8638 16.6244 80.1535C15.0187 79.4438 13.4961 78.5932 12.0559 77.6011C10.6157 76.609 9.28245 75.5203 8.05662 74.3338C5.50715 71.8638 3.5274 69.0193 2.11621 65.8004C0.705024 62.5814 0 59.1051 0 55.3708V27.7147C0 23.9804 0.690808 20.5381 2.07243 17.3874C3.45405 14.2366 5.44916 11.358 8.05662 8.75221C10.6646 6.14581 13.5496 4.15251 16.7119 2.77175C19.8743 1.39042 23.3142 0.700043 27.0309 0.700043H104.534V16.3078H27.0309C25.6493 16.3078 24.3501 16.5657 23.1339 17.0811C21.9178 17.5965 20.8574 18.3062 19.9522 19.2108C19.047 20.1148 18.3369 21.1751 17.8212 22.3905C17.3055 23.6059 17.0474 24.9043 17.0474 26.285V56.8004C17.0474 58.084 17.33 59.3239 17.894 60.52C18.4586 61.7161 19.2028 62.7763 20.1273 63.6997C21.0518 64.6236 22.1122 65.3674 23.309 65.9316C24.5059 66.4959 25.7465 66.7777 27.0309 66.7777H87.5158V48.4568H44.225V32.8491H95.1642C96.5651 32.8491 97.845 33.0729 99.0026 33.5201C100.161 33.9673 101.153 34.6043 101.98 35.431C102.807 36.2578 103.449 37.2448 103.907 38.392C104.364 39.5398 104.593 40.8137 104.593 42.2138V73.0207C104.593 74.4213 104.369 75.6953 103.921 76.8425C103.474 77.9897 102.836 78.9773 102.009 79.8035C101.182 80.6302 100.195 81.2672 99.0464 81.7144C97.8984 82.1616 96.6237 82.3854 95.2222 82.3854H27.0309Z" fill="black"/>
<path d="M235.256 82.3854L286.137 5.95148C288.764 1.98364 291.352 0 293.901 0C296.451 0 299.039 1.98364 301.666 5.95148L352.547 82.3854H331.762L293.901 25.0889L256.04 82.3854H235.256Z" fill="black"/>
<path d="M451.186 23.8639C451.186 22.911 451.021 21.982 450.69 21.0779C450.359 20.1733 449.873 19.3665 449.23 18.6562C448.589 17.9465 447.786 17.3777 446.822 16.9498C445.859 16.522 444.745 16.3078 443.48 16.3078H378.616V66.7777H443.48C444.803 66.7777 445.952 66.559 446.924 66.1214C447.897 65.6839 448.7 65.11 449.333 64.4003C449.965 63.69 450.432 62.8832 450.734 61.9786C451.036 61.0745 451.186 60.1552 451.186 59.2216V23.8639ZM370.91 82.3854C369.509 82.3854 368.234 82.1616 367.086 81.7144C365.937 81.2672 364.95 80.6302 364.123 79.8035C363.296 78.9773 362.658 77.9897 362.211 76.8425C361.763 75.6953 361.54 74.4213 361.54 73.0207V10.0648C361.54 8.66471 361.763 7.39077 362.211 6.24298C362.658 5.09575 363.296 4.10876 364.123 3.28201C364.95 2.45525 365.937 1.81886 367.086 1.37111C368.234 0.923923 369.509 0.700043 370.91 0.700043H443.743C446.487 0.700043 448.997 1.0262 451.274 1.67737C453.551 2.32911 455.609 3.22859 457.448 4.37582C459.287 5.52361 460.897 6.87995 462.279 8.44595C463.661 10.0114 464.809 11.7081 465.723 13.5366C466.638 15.3645 467.329 17.2902 467.796 19.3131C468.263 21.3353 468.497 23.3775 468.497 25.439V57.88C468.497 59.9222 468.273 61.9496 467.826 63.9628C467.378 65.9754 466.701 67.8863 465.797 69.6949C464.892 71.5036 463.758 73.186 462.396 74.7418C461.033 76.2982 459.433 77.6397 457.594 78.7682C455.755 79.8961 453.682 80.7808 451.376 81.4229C449.07 82.0644 446.525 82.3854 443.743 82.3854H370.91Z" fill="black"/>
<path d="M482.102 0.700043H499.178V82.3854H482.102V0.700043Z" fill="black"/>
<path d="M21.9936 105.361C21.0208 104.368 19.8973 103.612 18.6237 103.095C17.3501 102.577 15.8747 102.319 14.1968 102.319C12.83 102.319 11.5979 102.484 10.5006 102.816C9.40266 103.147 8.46566 103.607 7.68899 104.207C6.9129 104.808 6.31704 105.516 5.90312 106.329C5.48921 107.146 5.28168 108.047 5.28168 109.04C5.28168 110.054 5.48921 110.97 5.90312 111.797C6.31704 112.62 6.90778 113.334 7.67364 113.934C8.44007 114.534 9.37707 114.995 10.4852 115.327C11.5928 115.657 12.851 115.823 14.2594 115.823C15.8951 115.823 17.3393 115.575 18.5924 115.078C19.8456 114.581 20.9997 113.784 22.0561 112.688L25.2555 114.395C23.7647 116.077 22.1335 117.298 20.363 118.048C18.5924 118.798 16.5268 119.176 14.1661 119.176C12.2398 119.176 10.4903 118.922 8.91654 118.415C7.34217 117.908 6.00149 117.205 4.89335 116.304C3.78577 115.404 2.92609 114.338 2.31545 113.107C1.70424 111.875 1.39893 110.525 1.39893 109.055C1.39893 105.992 2.73449 103.478 5.4062 101.512C6.48307 100.725 7.75666 100.105 9.22697 99.6489C10.6973 99.1938 12.2711 98.9659 13.9484 98.9659C16.3506 98.9659 18.489 99.3904 20.363 100.239C22.237 101.088 23.9199 102.402 25.4107 104.182L21.9936 105.361ZM44.8381 102.784L40.272 111.229H49.3736L44.8381 102.784ZM53.4428 118.679L51.2374 114.581H38.4082L36.2027 118.679H32.1022L42.5087 99.587H47.1369L57.5428 118.679H53.4428ZM81.475 115.327C82.6758 115.327 83.5975 115.13 84.2394 114.731C84.8813 114.338 85.2025 113.805 85.2025 113.138C85.2025 112.388 84.9126 111.797 84.3326 111.373C83.7527 110.944 82.9038 110.732 81.7854 110.732H69.6709V115.327H81.475ZM81.7235 107.379C82.6138 107.379 83.3075 107.167 83.8044 106.748C84.3013 106.329 84.5498 105.786 84.5498 105.113C84.5498 104.44 84.3173 103.912 83.851 103.525C83.3854 103.137 82.7173 102.94 81.8474 102.94H69.6709V107.379H81.7235ZM85.9166 108.823C86.9628 109.361 87.7236 110.002 88.2051 110.747C88.6867 111.487 88.9301 112.418 88.9301 113.536C88.9301 115.207 88.2984 116.485 87.0401 117.36C85.7768 118.239 83.913 118.679 81.4539 118.679H65.9434V99.587H81.6609C82.6758 99.587 83.5872 99.7166 84.3946 99.9751C85.2025 100.234 85.8859 100.596 86.4448 101.067C87.0038 101.533 87.4336 102.091 87.7338 102.743C88.034 103.395 88.1847 104.12 88.1847 104.906C88.1847 106.525 87.4285 107.829 85.9166 108.823ZM126.001 104.305C124.717 103.643 123.413 103.152 122.087 102.831C120.762 102.51 119.364 102.35 117.894 102.35C113.649 102.35 111.526 103.105 111.526 104.616C111.526 105.133 111.732 105.521 112.147 105.781C112.561 106.039 113.151 106.231 113.918 106.354C114.684 106.479 115.616 106.572 116.713 106.634C117.811 106.696 119.053 106.799 120.441 106.944C121.932 107.089 123.236 107.291 124.355 107.55C125.473 107.809 126.4 108.16 127.135 108.605C127.87 109.05 128.419 109.604 128.781 110.266C129.144 110.929 129.325 111.735 129.325 112.688C129.325 114.736 128.419 116.32 126.607 117.437C124.795 118.555 122.129 119.114 118.608 119.114C113.7 119.114 109.776 117.996 106.835 115.761L108.854 113.122C110.159 114.033 111.619 114.721 113.234 115.187C114.849 115.652 116.62 115.885 118.546 115.885C120.762 115.885 122.444 115.611 123.594 115.062C124.743 114.514 125.318 113.784 125.318 112.874C125.318 111.839 124.593 111.125 123.143 110.732C122.087 110.442 120.839 110.287 119.4 110.266C117.961 110.246 116.33 110.152 114.508 109.986C112.147 109.759 110.407 109.257 109.289 108.481C108.171 107.705 107.612 106.551 107.612 105.02C107.612 103.199 108.492 101.755 110.252 100.689C112.012 99.6234 114.539 99.0904 117.832 99.0904C122.139 99.0904 125.628 100.022 128.3 101.884L126.001 104.305ZM138.968 118.679V99.587H158.817V102.94H142.695V107.1H153.909V110.452H142.695V115.327H159.531V118.679H138.968ZM184.208 108.31C186.465 108.31 187.594 107.441 187.594 105.703C187.594 104.74 187.304 104.037 186.724 103.597C186.144 103.157 185.233 102.94 183.991 102.94H173.057V108.31H184.208ZM187.532 118.679L182.531 111.663H173.057V118.679H169.329V99.587H184.767C185.782 99.587 186.698 99.7319 187.516 100.022C188.334 100.311 189.033 100.72 189.613 101.248C190.193 101.776 190.638 102.412 190.949 103.157C191.259 103.902 191.415 104.73 191.415 105.641C191.415 107.193 191.011 108.46 190.203 109.443C189.396 110.426 188.215 111.094 186.662 111.446L191.819 118.679H187.532ZM213.824 118.679H209.538L198.976 99.587H203.107L211.681 115.45L220.254 99.587H224.386L213.824 118.679ZM232.537 118.679V99.587H236.265V118.679H232.537ZM267.216 105.361C266.243 104.368 265.12 103.612 263.846 103.095C262.573 102.577 261.097 102.319 259.419 102.319C258.052 102.319 256.82 102.484 255.723 102.816C254.625 103.147 253.688 103.607 252.911 104.207C252.135 104.808 251.54 105.516 251.126 106.329C250.712 107.146 250.504 108.047 250.504 109.04C250.504 110.054 250.712 110.97 251.126 111.797C251.54 112.62 252.13 113.334 252.896 113.934C253.663 114.534 254.6 114.995 255.708 115.327C256.815 115.657 258.074 115.823 259.482 115.823C261.118 115.823 262.562 115.575 263.815 115.078C265.068 114.581 266.222 113.784 267.279 112.688L270.478 114.395C268.987 116.077 267.356 117.298 265.585 118.048C263.815 118.798 261.749 119.176 259.389 119.176C257.462 119.176 255.713 118.922 254.139 118.415C252.565 117.908 251.224 117.205 250.116 116.304C249.008 115.404 248.149 114.338 247.538 113.107C246.927 111.875 246.621 110.525 246.621 109.055C246.621 105.992 247.957 103.478 250.629 101.512C251.706 100.725 252.979 100.105 254.449 99.6489C255.92 99.1938 257.494 98.9659 259.171 98.9659C261.573 98.9659 263.711 99.3904 265.585 100.239C267.459 101.088 269.142 102.402 270.633 104.182L267.216 105.361ZM280.835 118.679V99.587H300.684V102.94H284.563V107.1H295.776V110.452H284.563V115.327H301.398V118.679H280.835ZM320.515 118.679V99.587H324.243V118.679H320.515ZM352.461 118.679L339.477 102.754V118.679H335.749V99.587H341.309L354.294 115.512V99.587H358.021V118.679H352.461ZM389.221 102.94V118.679H385.494V102.94H376.361V99.587H398.354V102.94H389.221ZM426.013 109.071C426.013 108.098 425.801 107.193 425.377 106.365C424.952 105.532 424.362 104.818 423.606 104.218C422.85 103.617 421.939 103.142 420.872 102.8C419.806 102.459 418.63 102.288 417.347 102.288C416.042 102.288 414.856 102.459 413.79 102.8C412.724 103.142 411.807 103.623 411.041 104.233C410.275 104.844 409.679 105.563 409.255 106.396C408.83 107.224 408.618 108.119 408.618 109.071C408.618 110.064 408.825 110.985 409.239 111.824C409.653 112.667 410.238 113.386 410.994 113.986C411.75 114.586 412.666 115.057 413.743 115.388C414.82 115.72 416.021 115.885 417.347 115.885C418.672 115.885 419.868 115.72 420.934 115.388C422.001 115.057 422.912 114.586 423.668 113.986C424.424 113.386 425.004 112.667 425.407 111.824C425.811 110.985 426.013 110.064 426.013 109.071ZM429.896 109.086C429.896 112.232 428.561 114.778 425.889 116.723C424.812 117.51 423.543 118.126 422.084 118.57C420.624 119.015 419.045 119.238 417.347 119.238C415.648 119.238 414.064 119.015 412.594 118.57C411.124 118.126 409.85 117.51 408.773 116.723C406.102 114.778 404.766 112.232 404.766 109.086C404.766 105.982 406.112 103.457 408.804 101.512C409.902 100.725 411.186 100.1 412.656 99.6336C414.126 99.1682 415.69 98.9352 417.347 98.9352C419.003 98.9352 420.562 99.1682 422.021 99.6336C423.482 100.1 424.76 100.725 425.858 101.512C428.55 103.478 429.896 106.003 429.896 109.086ZM462.37 118.679H457.897L453.331 102.722L448.764 118.679H444.291L437.799 99.587H441.93L446.528 115.45L451.094 99.587H455.567L460.134 115.45L464.731 99.587H468.862L462.37 118.679ZM494.44 118.679L481.456 102.754V118.679H477.728V99.587H483.288L496.272 115.512V99.587H500V118.679H494.44Z" fill="black"/>
<path d="M208.766 54.6032C210.08 53.9094 208.269 71.0257 206.606 71.0592C206.847 71.0547 205.394 71.4428 202.725 71.9723C194.897 73.2719 185.963 71.8627 177.866 68.1988C173.595 66.1072 169.367 64.2287 165.3 62.9786C161.127 62.3553 157.046 62.3593 153.481 62.8411C149.919 63.7832 146.945 64.9208 144.921 65.8726C142.929 66.9794 141.848 67.621 141.997 67.4437C140.952 68.6795 140.577 51.1285 142.025 50.5893C141.826 50.6637 143.237 49.9376 145.831 48.779C148.457 47.7965 152.301 46.7004 156.878 45.8879C161.43 45.5918 166.598 45.8862 171.802 46.8874C180.119 49.0614 188.032 55.4776 197.02 56.1106C200.595 56.1339 203.639 55.8083 205.735 55.4066C207.828 54.8503 208.962 54.4992 208.766 54.6032Z" fill="#A8CF45"/>
<path d="M113.585 82.3854L164.466 5.95148C167.093 1.98364 169.682 0 172.231 0C174.78 0 177.369 1.98364 179.996 5.95148L230.877 82.3854H210.092L172.231 25.0889L134.369 82.3854H113.585Z" fill="black"/>
<path d="M27.0309 82.3854C25.1825 82.3854 23.3869 82.1911 21.6454 81.8019C19.9033 81.4132 18.23 80.8638 16.6244 80.1535C15.0187 79.4438 13.4961 78.5932 12.0559 77.6011C10.6157 76.609 9.28245 75.5203 8.05662 74.3338C5.50715 71.8638 3.5274 69.0193 2.11621 65.8004C0.705024 62.5814 0 59.1051 0 55.3708V27.7147C0 23.9804 0.690808 20.5381 2.07243 17.3874C3.45405 14.2366 5.44916 11.358 8.05662 8.75221C10.6646 6.14581 13.5496 4.15251 16.7119 2.77175C19.8743 1.39042 23.3142 0.700043 27.0309 0.700043H104.534V16.3078H27.0309C25.6493 16.3078 24.3501 16.5657 23.1339 17.0811C21.9178 17.5965 20.8574 18.3062 19.9522 19.2108C19.047 20.1148 18.3369 21.1751 17.8212 22.3905C17.3055 23.6059 17.0474 24.9043 17.0474 26.285V56.8004C17.0474 58.084 17.33 59.3239 17.894 60.52C18.4586 61.7161 19.2028 62.7763 20.1273 63.6997C21.0518 64.6236 22.1122 65.3674 23.309 65.9316C24.5059 66.4959 25.7465 66.7777 27.0309 66.7777H87.5158V48.4568H44.225V32.8491H95.1642C96.5651 32.8491 97.845 33.0729 99.0026 33.5201C100.161 33.9673 101.153 34.6043 101.98 35.431C102.807 36.2578 103.449 37.2448 103.907 38.392C104.364 39.5398 104.593 40.8137 104.593 42.2138V73.0207C104.593 74.4213 104.369 75.6953 103.921 76.8425C103.474 77.9897 102.836 78.9773 102.009 79.8035C101.182 80.6302 100.195 81.2672 99.0464 81.7144C97.8984 82.1616 96.6237 82.3854 95.2222 82.3854H27.0309Z" fill="black"/>
<path d="M235.256 82.3854L286.137 5.95148C288.764 1.98364 291.352 0 293.901 0C296.451 0 299.039 1.98364 301.666 5.95148L352.547 82.3854H331.762L293.901 25.0889L256.04 82.3854H235.256Z" fill="black"/>
<path d="M451.186 23.8639C451.186 22.911 451.021 21.982 450.69 21.0779C450.359 20.1733 449.873 19.3665 449.23 18.6562C448.589 17.9465 447.786 17.3777 446.822 16.9498C445.859 16.522 444.745 16.3078 443.48 16.3078H378.616V66.7777H443.48C444.803 66.7777 445.952 66.559 446.924 66.1214C447.897 65.6839 448.7 65.11 449.333 64.4003C449.965 63.69 450.432 62.8832 450.734 61.9786C451.036 61.0745 451.186 60.1552 451.186 59.2216V23.8639ZM370.91 82.3854C369.509 82.3854 368.234 82.1616 367.086 81.7144C365.937 81.2672 364.95 80.6302 364.123 79.8035C363.296 78.9773 362.658 77.9897 362.211 76.8425C361.763 75.6953 361.54 74.4213 361.54 73.0207V10.0648C361.54 8.66471 361.763 7.39077 362.211 6.24298C362.658 5.09575 363.296 4.10876 364.123 3.28201C364.95 2.45525 365.937 1.81886 367.086 1.37111C368.234 0.923923 369.509 0.700043 370.91 0.700043H443.743C446.487 0.700043 448.997 1.0262 451.274 1.67737C453.551 2.32911 455.609 3.22859 457.448 4.37582C459.287 5.52361 460.897 6.87995 462.279 8.44595C463.661 10.0114 464.809 11.7081 465.723 13.5366C466.638 15.3645 467.329 17.2902 467.796 19.3131C468.263 21.3353 468.497 23.3775 468.497 25.439V57.88C468.497 59.9222 468.273 61.9496 467.826 63.9628C467.378 65.9754 466.701 67.8863 465.797 69.6949C464.892 71.5036 463.758 73.186 462.396 74.7418C461.033 76.2982 459.433 77.6397 457.594 78.7682C455.755 79.8961 453.682 80.7808 451.376 81.4229C449.07 82.0644 446.525 82.3854 443.743 82.3854H370.91Z" fill="black"/>
<path d="M482.102 0.700043H499.178V82.3854H482.102V0.700043Z" fill="black"/>
<path d="M21.9936 105.361C21.0208 104.368 19.8973 103.612 18.6237 103.095C17.3501 102.577 15.8747 102.319 14.1968 102.319C12.83 102.319 11.5979 102.484 10.5006 102.816C9.40266 103.147 8.46566 103.607 7.68899 104.207C6.9129 104.808 6.31704 105.516 5.90312 106.329C5.48921 107.146 5.28168 108.047 5.28168 109.04C5.28168 110.054 5.48921 110.97 5.90312 111.797C6.31704 112.62 6.90778 113.334 7.67364 113.934C8.44007 114.534 9.37707 114.995 10.4852 115.327C11.5928 115.657 12.851 115.823 14.2594 115.823C15.8951 115.823 17.3393 115.575 18.5924 115.078C19.8456 114.581 20.9997 113.784 22.0561 112.688L25.2555 114.395C23.7647 116.077 22.1335 117.298 20.363 118.048C18.5924 118.798 16.5268 119.176 14.1661 119.176C12.2398 119.176 10.4903 118.922 8.91654 118.415C7.34217 117.908 6.00149 117.205 4.89335 116.304C3.78577 115.404 2.92609 114.338 2.31545 113.107C1.70424 111.875 1.39893 110.525 1.39893 109.055C1.39893 105.992 2.73449 103.478 5.4062 101.512C6.48307 100.725 7.75666 100.105 9.22697 99.6489C10.6973 99.1938 12.2711 98.9659 13.9484 98.9659C16.3506 98.9659 18.489 99.3904 20.363 100.239C22.237 101.088 23.9199 102.402 25.4107 104.182L21.9936 105.361ZM44.8381 102.784L40.272 111.229H49.3736L44.8381 102.784ZM53.4428 118.679L51.2374 114.581H38.4082L36.2027 118.679H32.1022L42.5087 99.587H47.1369L57.5428 118.679H53.4428ZM81.475 115.327C82.6758 115.327 83.5975 115.13 84.2394 114.731C84.8813 114.338 85.2025 113.805 85.2025 113.138C85.2025 112.388 84.9126 111.797 84.3326 111.373C83.7527 110.944 82.9038 110.732 81.7854 110.732H69.6709V115.327H81.475ZM81.7235 107.379C82.6138 107.379 83.3075 107.167 83.8044 106.748C84.3013 106.329 84.5498 105.786 84.5498 105.113C84.5498 104.44 84.3173 103.912 83.851 103.525C83.3854 103.137 82.7173 102.94 81.8474 102.94H69.6709V107.379H81.7235ZM85.9166 108.823C86.9628 109.361 87.7236 110.002 88.2051 110.747C88.6867 111.487 88.9301 112.418 88.9301 113.536C88.9301 115.207 88.2984 116.485 87.0401 117.36C85.7768 118.239 83.913 118.679 81.4539 118.679H65.9434V99.587H81.6609C82.6758 99.587 83.5872 99.7166 84.3946 99.9751C85.2025 100.234 85.8859 100.596 86.4448 101.067C87.0038 101.533 87.4336 102.091 87.7338 102.743C88.034 103.395 88.1847 104.12 88.1847 104.906C88.1847 106.525 87.4285 107.829 85.9166 108.823ZM126.001 104.305C124.717 103.643 123.413 103.152 122.087 102.831C120.762 102.51 119.364 102.35 117.894 102.35C113.649 102.35 111.526 103.105 111.526 104.616C111.526 105.133 111.732 105.521 112.147 105.781C112.561 106.039 113.151 106.231 113.918 106.354C114.684 106.479 115.616 106.572 116.713 106.634C117.811 106.696 119.053 106.799 120.441 106.944C121.932 107.089 123.236 107.291 124.355 107.55C125.473 107.809 126.4 108.16 127.135 108.605C127.87 109.05 128.419 109.604 128.781 110.266C129.144 110.929 129.325 111.735 129.325 112.688C129.325 114.736 128.419 116.32 126.607 117.437C124.795 118.555 122.129 119.114 118.608 119.114C113.7 119.114 109.776 117.996 106.835 115.761L108.854 113.122C110.159 114.033 111.619 114.721 113.234 115.187C114.849 115.652 116.62 115.885 118.546 115.885C120.762 115.885 122.444 115.611 123.594 115.062C124.743 114.514 125.318 113.784 125.318 112.874C125.318 111.839 124.593 111.125 123.143 110.732C122.087 110.442 120.839 110.287 119.4 110.266C117.961 110.246 116.33 110.152 114.508 109.986C112.147 109.759 110.407 109.257 109.289 108.481C108.171 107.705 107.612 106.551 107.612 105.02C107.612 103.199 108.492 101.755 110.252 100.689C112.012 99.6234 114.539 99.0904 117.832 99.0904C122.139 99.0904 125.628 100.022 128.3 101.884L126.001 104.305ZM138.968 118.679V99.587H158.817V102.94H142.695V107.1H153.909V110.452H142.695V115.327H159.531V118.679H138.968ZM184.208 108.31C186.465 108.31 187.594 107.441 187.594 105.703C187.594 104.74 187.304 104.037 186.724 103.597C186.144 103.157 185.233 102.94 183.991 102.94H173.057V108.31H184.208ZM187.532 118.679L182.531 111.663H173.057V118.679H169.329V99.587H184.767C185.782 99.587 186.698 99.7319 187.516 100.022C188.334 100.311 189.033 100.72 189.613 101.248C190.193 101.776 190.638 102.412 190.949 103.157C191.259 103.902 191.415 104.73 191.415 105.641C191.415 107.193 191.011 108.46 190.203 109.443C189.396 110.426 188.215 111.094 186.662 111.446L191.819 118.679H187.532ZM213.824 118.679H209.538L198.976 99.587H203.107L211.681 115.45L220.254 99.587H224.386L213.824 118.679ZM232.537 118.679V99.587H236.265V118.679H232.537ZM267.216 105.361C266.243 104.368 265.12 103.612 263.846 103.095C262.573 102.577 261.097 102.319 259.419 102.319C258.052 102.319 256.82 102.484 255.723 102.816C254.625 103.147 253.688 103.607 252.911 104.207C252.135 104.808 251.54 105.516 251.126 106.329C250.712 107.146 250.504 108.047 250.504 109.04C250.504 110.054 250.712 110.97 251.126 111.797C251.54 112.62 252.13 113.334 252.896 113.934C253.663 114.534 254.6 114.995 255.708 115.327C256.815 115.657 258.074 115.823 259.482 115.823C261.118 115.823 262.562 115.575 263.815 115.078C265.068 114.581 266.222 113.784 267.279 112.688L270.478 114.395C268.987 116.077 267.356 117.298 265.585 118.048C263.815 118.798 261.749 119.176 259.389 119.176C257.462 119.176 255.713 118.922 254.139 118.415C252.565 117.908 251.224 117.205 250.116 116.304C249.008 115.404 248.149 114.338 247.538 113.107C246.927 111.875 246.621 110.525 246.621 109.055C246.621 105.992 247.957 103.478 250.629 101.512C251.706 100.725 252.979 100.105 254.449 99.6489C255.92 99.1938 257.494 98.9659 259.171 98.9659C261.573 98.9659 263.711 99.3904 265.585 100.239C267.459 101.088 269.142 102.402 270.633 104.182L267.216 105.361ZM280.835 118.679V99.587H300.684V102.94H284.563V107.1H295.776V110.452H284.563V115.327H301.398V118.679H280.835ZM320.515 118.679V99.587H324.243V118.679H320.515ZM352.461 118.679L339.477 102.754V118.679H335.749V99.587H341.309L354.294 115.512V99.587H358.021V118.679H352.461ZM389.221 102.94V118.679H385.494V102.94H376.361V99.587H398.354V102.94H389.221ZM426.013 109.071C426.013 108.098 425.801 107.193 425.377 106.365C424.952 105.532 424.362 104.818 423.606 104.218C422.85 103.617 421.939 103.142 420.872 102.8C419.806 102.459 418.63 102.288 417.347 102.288C416.042 102.288 414.856 102.459 413.79 102.8C412.724 103.142 411.807 103.623 411.041 104.233C410.275 104.844 409.679 105.563 409.255 106.396C408.83 107.224 408.618 108.119 408.618 109.071C408.618 110.064 408.825 110.985 409.239 111.824C409.653 112.667 410.238 113.386 410.994 113.986C411.75 114.586 412.666 115.057 413.743 115.388C414.82 115.72 416.021 115.885 417.347 115.885C418.672 115.885 419.868 115.72 420.934 115.388C422.001 115.057 422.912 114.586 423.668 113.986C424.424 113.386 425.004 112.667 425.407 111.824C425.811 110.985 426.013 110.064 426.013 109.071ZM429.896 109.086C429.896 112.232 428.561 114.778 425.889 116.723C424.812 117.51 423.543 118.126 422.084 118.57C420.624 119.015 419.045 119.238 417.347 119.238C415.648 119.238 414.064 119.015 412.594 118.57C411.124 118.126 409.85 117.51 408.773 116.723C406.102 114.778 404.766 112.232 404.766 109.086C404.766 105.982 406.112 103.457 408.804 101.512C409.902 100.725 411.186 100.1 412.656 99.6336C414.126 99.1682 415.69 98.9352 417.347 98.9352C419.003 98.9352 420.562 99.1682 422.021 99.6336C423.482 100.1 424.76 100.725 425.858 101.512C428.55 103.478 429.896 106.003 429.896 109.086ZM462.37 118.679H457.897L453.331 102.722L448.764 118.679H444.291L437.799 99.587H441.93L446.528 115.45L451.094 99.587H455.567L460.134 115.45L464.731 99.587H468.862L462.37 118.679ZM494.44 118.679L481.456 102.754V118.679H477.728V99.587H483.288L496.272 115.512V99.587H500V118.679H494.44Z" fill="black"/>
<path d="M208.766 54.6032C210.08 53.9094 208.269 71.0257 206.606 71.0592C206.847 71.0547 205.394 71.4428 202.725 71.9723C194.897 73.2719 185.963 71.8627 177.866 68.1988C173.595 66.1072 169.367 64.2287 165.3 62.9786C161.127 62.3553 157.046 62.3593 153.481 62.8411C149.919 63.7832 146.945 64.9208 144.921 65.8726C142.929 66.9794 141.848 67.621 141.997 67.4437C140.952 68.6795 140.577 51.1285 142.025 50.5893C141.826 50.6637 143.237 49.9376 145.831 48.779C148.457 47.7965 152.301 46.7004 156.878 45.8879C161.43 45.5918 166.598 45.8862 171.802 46.8874C180.119 49.0614 188.032 55.4776 197.02 56.1106C200.595 56.1339 203.639 55.8083 205.735 55.4066C207.828 54.8503 208.962 54.4992 208.766 54.6032Z" fill="#FF9900"/>
<path d="M113.585 82.3854L164.466 5.95148C167.093 1.98364 169.682 0 172.231 0C174.78 0 177.369 1.98364 179.996 5.95148L230.877 82.3854H210.092L172.231 25.0889L134.369 82.3854H113.585Z" fill="black"/>
</svg>
